<?xml version="1.0" standalone="no"?><!DOCTYPE svg PUBLIC "-//W3C//DTD SVG 1.1//EN" "http://www.w3.org/Graphics/SVG/1.1/DTD/svg11.dtd"><svg t="1614136126163" class="icon" viewBox="0 0 1024 1024" version="1.1" xmlns="http://www.w3.org/2000/svg" p-id="2818" width="128" height="128" xmlns:xlink="http://www.w3.org/1999/xlink"><defs><style type="text/css"></style></defs><path d="M159.861689 1024a156.022249 156.022249 0 0 1-155.830261-155.830261v-684.757202A183.476533 183.476533 0 0 1 187.443965 0.063996h737.937879a66.747828 66.747828 0 0 1 66.619836 66.683832l4.927692 644.375727a26.302356 26.302356 0 0 1 17.726892 19.582776c5.375664 22.462596-14.783076 32.573964-24.446472 37.501656l-8.127492 4.031748a92.218236 92.218236 0 0 0-55.164552 85.75464 105.5934 105.5934 0 0 0 57.5964 88.250485 144.886945 144.886945 0 0 1 27.390288 23.102556 38.3976 38.3976 0 0 1 6.07962 32.765952c-9.215424 22.014624-36.7977 22.014624-50.300856 22.014624zM58.876 868.041747a100.921692 100.921692 0 0 0 100.729705 100.985689h764.752203a142.135117 142.135117 0 0 1-52.476721-111.097057 153.590401 153.590401 0 0 1 33.661897-95.35404l-745.937379-0.447972a106.041372 106.041372 0 0 0-100.793701 105.91338z m0-684.757202v562.07687a130.167865 130.167865 0 0 1 88.186489-38.3976h794.830323L936.96512 66.55584a11.775264 11.775264 0 0 0-11.647272-12.095244H187.507961A128.759953 128.759953 0 0 0 58.812004 183.348541z m286.830073 394.855321v-382.696081h265.135429a77.75514 77.75514 0 0 1 77.179177 77.243172v228.209737a77.75514 77.75514 0 0 1-77.179177 77.243172z m96.761953-31.422036h110.841072a38.3976 38.3976 0 0 0 38.3976-38.3976v-243.184801a38.3976 38.3976 0 0 0-38.3976-38.3976H442.468026z" p-id="2819"></path></svg>