<?xml version="1.0" standalone="no"?><!DOCTYPE svg PUBLIC "-//W3C//DTD SVG 1.1//EN" "http://www.w3.org/Graphics/SVG/1.1/DTD/svg11.dtd"><svg t="1616052120647" class="icon" viewBox="0 0 1024 1024" version="1.1" xmlns="http://www.w3.org/2000/svg" p-id="3899" xmlns:xlink="http://www.w3.org/1999/xlink" width="200" height="200"><defs><style type="text/css"></style></defs><path d="M512 0a512 512 0 1 0 512 512A512 512 0 0 0 512 0z m409.6 512a404.48 404.48 0 0 1-86.528 250.88L261.12 188.928A404.48 404.48 0 0 1 512 102.4a409.6 409.6 0 0 1 409.6 409.6zM102.4 512a404.48 404.48 0 0 1 86.528-250.88L762.88 835.072A404.48 404.48 0 0 1 512 921.6a409.6 409.6 0 0 1-409.6-409.6z" p-id="3900" fill="#d81e06"></path></svg>