<?xml version="1.0" standalone="no"?><!DOCTYPE svg PUBLIC "-//W3C//DTD SVG 1.1//EN" "http://www.w3.org/Graphics/SVG/1.1/DTD/svg11.dtd"><svg t="1614655244051" class="icon" viewBox="0 0 1364 1024" version="1.1" xmlns="http://www.w3.org/2000/svg" p-id="2130" xmlns:xlink="http://www.w3.org/1999/xlink" width="170.5" height="128"><defs><style type="text/css"></style></defs><path d="M255.530688 679.852361H170.581234v84.864163h84.949454v-84.864163zM1274.497689 0.512597H85.71707a84.949454 84.949454 0 0 0-84.949454 84.949454v806.678655c0 46.909839 38.039615 84.864164 84.949454 84.864164h1188.780619c46.909839 0 84.949454-37.954325 84.949455-84.864164V85.462051A84.949454 84.949454 0 0 0 1274.497689 0.512597z m0 891.628109H85.71707V552.342888h1188.780619v339.712528z m0-424.576691H85.71707V85.462051h1188.780619v382.101964zM1147.158798 679.852361H425.344307v84.864163h721.814491v-84.864163zM255.530688 255.275669H170.581234v84.864164h84.949454v-84.864164z m891.62811 0H425.344307v84.864164h721.814491v-84.864164z" p-id="2131"></path></svg>