<?xml version="1.0" standalone="no"?><!DOCTYPE svg PUBLIC "-//W3C//DTD SVG 1.1//EN" "http://www.w3.org/Graphics/SVG/1.1/DTD/svg11.dtd"><svg t="1616240267736" class="icon" viewBox="0 0 1024 1024" version="1.1" xmlns="http://www.w3.org/2000/svg" p-id="2640" width="128" height="128" xmlns:xlink="http://www.w3.org/1999/xlink"><defs><style type="text/css"></style></defs><path d="M132.267176 943.000119a36.706894 36.706894 0 0 0 36.706895 36.706895h686.66364a36.706894 36.706894 0 0 0 36.706894-36.706895V80.999881a36.706894 36.706894 0 0 0-36.706894-36.706895H168.239933a36.706894 36.706894 0 0 0-36.706894 36.706895z m-36.706894 40.86701V40.132871A40.132871 40.132871 0 0 1 135.693153 0h752.613694a40.132871 40.132871 0 0 1 40.132871 40.132871v943.734258a40.132871 40.132871 0 0 1-40.132871 40.132871H135.693153A40.132871 40.132871 0 0 1 95.560282 983.867129z" p-id="2641"></path><path d="M519.769626 807.062254h284.845501v44.170629H519.769626zM519.769626 704.038236h284.845501v44.17063H519.769626zM519.769626 536.043016h284.845501v44.17063H519.769626zM519.769626 433.018999h284.845501V477.189628H519.769626zM519.769626 271.26395h284.845501v44.17063H519.769626zM519.769626 168.239933h284.845501v44.17063H519.769626zM230.152228 824.069781v-120.031545h153.801888v23.2477a15.294539 15.294539 0 0 0-13.092125 7.463735l-68.030111 111.956029L279.094754 815.015414a15.416896 15.416896 0 0 0-27.774883 9.054367zM228.928665 553.050544v-120.031545h154.291313v23.2477a15.416896 15.416896 0 0 0-13.214482 7.463735l-68.030111 111.956028L279.094754 543.996176a15.416896 15.416896 0 0 0-27.774883 9.054368zM228.928665 288.271478v-120.031545h154.291313v23.2477a15.416896 15.416896 0 0 0-13.214482 7.463735l-68.030111 111.956028-22.880631-31.812642a15.416896 15.416896 0 0 0-27.774883 9.176724z" p-id="2642"></path><path d="M251.68694 824.069781a14.805114 14.805114 0 0 0 3.058908 9.176724l34.87155 47.718963a15.294539 15.294539 0 0 0 14.438045 6.240172 15.661608 15.661608 0 0 0 14.92747-7.341379l78.185685-128.718843a15.416896 15.416896 0 0 0-5.261321-21.167643 14.682758 14.682758 0 0 0-7.953161-2.32477v-23.2477h51.879078v205.803322H230.152228v-85.64942zM250.952802 553.050544a15.416896 15.416896 0 0 0 2.936552 9.054367l34.993906 47.47425a15.539252 15.539252 0 0 0 14.560401 6.117816 15.416896 15.416896 0 0 0 14.682758-7.219023l78.185685-128.841199a15.416896 15.416896 0 0 0-5.138965-21.167643 15.661608 15.661608 0 0 0-7.953161-2.202413v-23.2477h51.879078v206.17039H228.928665v-85.64942zM250.952802 288.271478a16.028677 16.028677 0 0 0 2.936552 9.176724l34.993906 47.351894a15.539252 15.539252 0 0 0 14.560401 6.117815 15.416896 15.416896 0 0 0 14.682758-7.219022l78.185685-128.8412a15.294539 15.294539 0 0 0-13.092126-23.370056v-23.2477h51.879078V374.410324H228.928665v-85.649421z" p-id="2643"></path></svg>