<?xml version="1.0" standalone="no"?><!DOCTYPE svg PUBLIC "-//W3C//DTD SVG 1.1//EN" "http://www.w3.org/Graphics/SVG/1.1/DTD/svg11.dtd"><svg t="1616466560338" class="icon" viewBox="0 0 1024 1024" version="1.1" xmlns="http://www.w3.org/2000/svg" p-id="2327" xmlns:xlink="http://www.w3.org/1999/xlink" width="200" height="200"><defs><style type="text/css"></style></defs><path d="M123.825231 15.753846l764.691692 0.315077-0.330831 191.235939 73.1136 0.015753A46.946462 46.946462 0 0 1 1008.246154 254.267077V855.433846a46.946462 46.946462 0 0 1-46.946462 46.631385h-318.227692V960.984615h43.795692v63.015385H321.063385v-63.015385h45.6704v-58.919384H47.576615A46.962215 46.962215 0 0 1 0 855.433846V254.267077a46.946462 46.946462 0 0 1 46.631385-46.946462l76.863015-0.015753L123.825231 15.753846z m456.231384 886.311385h-150.307446V960.984615h150.307446v-58.919384zM63.015385 774.648123v62.826339h882.215384v-61.282462l-882.215384-1.543877zM945.230769 270.336l-57.154954-0.015754-0.771938 442.746092L945.230769 713.176615V270.336zM186.525538 78.769231l-0.897969 633.068307 638.660923 1.118524 0.89797-633.871754L186.525538 78.769231zM123.384123 270.320246L63.015385 270.336v441.296738l59.5968 0.094524 0.771938-441.407016zM402.668308 128.866462l191.566769 351.310769 46.001231-115.318154H756.184615v63.015385h-73.097846l-80.029538 200.073846-186.525539-341.858462-47.261538 141.784616H252.061538v-63.015385h71.837539l78.769231-235.992615z" fill="#000000" p-id="2328"></path></svg>