<?xml version="1.0" standalone="no"?><!DOCTYPE svg PUBLIC "-//W3C//DTD SVG 1.1//EN" "http://www.w3.org/Graphics/SVG/1.1/DTD/svg11.dtd"><svg t="1616471012880" class="icon" viewBox="0 0 1024 1024" version="1.1" xmlns="http://www.w3.org/2000/svg" p-id="1847" xmlns:xlink="http://www.w3.org/1999/xlink" width="200" height="200"><defs><style type="text/css"></style></defs><path d="M429.3 738.3h-0.5c-7.4-0.2-13.6-5.6-14.9-12.9l-53.6-303.6-31.1 95c-2.1 6.4-8.1 10.7-14.8 10.7H146.1c-8.6 0-15.6-7-15.6-15.6s7-15.6 15.6-15.6h157.1l46.9-143.2c2.2-6.8 8.8-11 15.9-10.7 7.1 0.5 13 5.8 14.2 12.8l51.3 290.9 33-137.9c1.7-7 7.9-11.9 15.1-11.9h52.1l47.6-198.8c1.7-7.2 8.4-11.8 15.6-11.9 7.4 0.2 13.6 5.6 14.9 12.9l53.6 303.6 31.1-95c2.1-6.4 8.1-10.7 14.8-10.7H878c8.6 0 15.6 7 15.6 15.6s-7 15.6-15.6 15.6H720.7l-46.9 143.2c-2.2 6.8-8.9 11.1-15.9 10.7-7.1-0.5-13-5.8-14.2-12.8l-51.4-291-33 137.9c-1.7 7-7.9 11.9-15.1 11.9h-52.1l-47.6 198.8c-1.7 7.1-8 12-15.2 12z" p-id="1848"></path><path d="M512 893.5c-178.4 0-335.2-126.5-372.8-300.7-1.8-8.4 3.5-16.7 11.9-18.5s16.7 3.5 18.5 11.9c34.5 160 178.5 276.2 342.4 276.2 163.6 0 307.6-115.8 342.4-275.4 1.8-8.4 10.1-13.6 18.5-11.9 8.4 1.8 13.7 10.1 11.9 18.5C846.9 767.4 690 893.5 512 893.5zM869.5 450c-7.2 0-13.6-5-15.2-12.3-34.5-160-178.5-276.1-342.3-276.1-163.6 0-307.6 115.9-342.4 275.5-1.8 8.4-10.1 13.8-18.5 11.9-8.4-1.8-13.7-10.1-11.9-18.5 37.8-173.9 194.6-300 372.8-300 178.4 0 335.2 126.5 372.8 300.7 1.8 8.4-3.5 16.7-11.9 18.5-1.2 0.2-2.4 0.3-3.4 0.3z" p-id="1849"></path></svg>