<?xml version="1.0" standalone="no"?><!DOCTYPE svg PUBLIC "-//W3C//DTD SVG 1.1//EN" "http://www.w3.org/Graphics/SVG/1.1/DTD/svg11.dtd"><svg t="1614159248459" class="icon" viewBox="0 0 1210 1024" version="1.1" xmlns="http://www.w3.org/2000/svg" p-id="2154" xmlns:xlink="http://www.w3.org/1999/xlink" width="151.25" height="128"><defs><style type="text/css"></style></defs><path d="M1200.64 824.32L1053.696 87.552C1046.016 41.984 1001.984 7.168 948.224 5.12h-686.08c-54.784 2.048-99.328 37.888-105.984 84.992L9.216 824.32c-5.632 14.848-9.216 30.208-9.216 46.592 0 82.944 77.312 150.528 173.056 150.528h864.256c95.232 0 173.056-67.584 173.056-150.528 0-16.384-4.096-32.256-9.728-46.592zM245.76 80.384h718.848l129.536 593.92c-18.432-5.12-37.888-8.192-56.832-8.192H173.056c-19.968 0-38.912 3.072-56.832 8.192L245.76 80.384z m229.888 413.184h259.072c47.616 0 86.528-37.888 86.528-84.48s-38.912-84.48-86.528-84.48c0-69.632-57.856-126.464-129.536-126.464S475.648 254.976 475.648 324.608c-47.616 0-86.528 37.888-86.528 84.48s38.4 84.48 86.528 84.48z m561.664 452.608H173.056c-47.616 0-86.528-43.52-86.528-96.768S125.44 752.64 173.056 752.64h864.256c47.616 0 86.528 43.52 86.528 96.768s-38.912 96.768-86.528 96.768z m-43.008-135.68c-24.064 0-43.008 18.944-43.008 41.984s19.456 41.984 43.008 41.984c24.064 0 43.008-18.944 43.008-41.984s-19.456-41.984-43.008-41.984z" p-id="2155"></path></svg>