<?xml version="1.0" standalone="no"?><!DOCTYPE svg PUBLIC "-//W3C//DTD SVG 1.1//EN" "http://www.w3.org/Graphics/SVG/1.1/DTD/svg11.dtd"><svg t="1616051527636" class="icon" viewBox="0 0 1024 1024" version="1.1" xmlns="http://www.w3.org/2000/svg" p-id="2079" xmlns:xlink="http://www.w3.org/1999/xlink" width="200" height="200"><defs><style type="text/css"></style></defs><path d="M0 512a512 512 0 1 0 1024 0A512 512 0 1 0 0 512z" fill="#29CC40" p-id="2080"></path><path d="M826.027 324.267c-20.48-23.894-54.614-23.894-75.094-6.827L430.08 590.507 276.48 450.56c-23.893-20.48-58.027-17.067-78.507 3.413-20.48 23.894-17.066 58.027 3.414 78.507l180.906 163.84s0 3.413 3.414 3.413c20.48 23.894 54.613 23.894 75.093 6.827l358.4-303.787c23.893-20.48 27.307-54.613 6.827-78.506z" fill="#FFFFFF" p-id="2081"></path></svg>